# xmcd
#
# Track frame offsets:
#	150
#	21750
#	39603
#	53695
#	68988
#	83813
#	98770
#	115010
#	127518
#	140110
#	152735
#	166575
#	179185
#	191458
#	201698
#	211565
#	223380
#	238663
#	253938
#	266620
#
# Disc length: 3717 seconds
#
# Revision: 2
# Processed by: cddbd v1.5.2PL0 Copyright (c) Steve Scherf et al.
# Submitted via: audiograbber 1.83.01
#
DISCID=240e8314
DTITLE=Various Artist - Goldene Schlager Folge 2
DYEAR=1995
DGENRE=Schlager-Oldies/D
TTITLE0=Christian Anders - Es Fährt Ein Zug Nach Nirgentwo
TTITLE1=Camillo Felgen - La Lontananza (Ferne Und Einsamkeit)
TTITLE2=Elfi Graf - Kneipe Rein Kneipe Raus
TTITLE3=Ralf Paulsen - Es Hängt Ein Pferdehalfter An Der Wand
TTITLE4=Simone Görtz - Jedesmal
TTITLE5=Randolfh Rose - Brasil - Agil
TTITLE6=Ulli Martin - Die Insel Niemandsland
TTITLE7=Gus Backus - Fräuleins Made In Germany
TTITLE8=Werner Leismann - Mendocino
TTITLE9=Robert Jung - Mama, Heut Blühn Für Dich Die Rosen
TTITLE10=Collage - Ganz Nah
TTITLE11=Caterina Valente - Tausen Rosarote Pfeile
TTITLE12=Wolfgang Sauer - Mein Herz Hat Noch Viel Platz
TTITLE13=Erik Silvester - Dann Fiel Die Türe Zu
TTITLE14=Eric Thomas - Ja Die Liebe Ist Da
TTITLE15=Heinz Schenk - Es Ist Alles Nur Geliehen
TTITLE16=Flamingos - Am Strand Von Barbados
TTITLE17=Tina York - Gino Laß Mich Heute Nicht Erfrieren
TTITLE18=Peter Beil - Corrinna Corrinna
TTITLE19=Mary Roos - Das Hat Die Welt Noch Nicht Erlebt
EXTD=
EXTT0=
EXTT1=
EXTT2=
EXTT3=
EXTT4=
EXTT5=
EXTT6=
EXTT7=Fräuleins
EXTT8=
EXTT9=
EXTT10=
EXTT11=
EXTT12=
EXTT13=
EXTT14=
EXTT15=
EXTT16=
EXTT17=Tina York (Schwester von Mary Roos)
EXTT18=
EXTT19=
PLAYORDER=
